<?xml version="1.0" encoding="utf-8"?>
<!DOCTYPE svg PUBLIC "-//W3C//DTD SVG 1.1//EN" "http://www.w3.org/Graphics/SVG/1.1/DTD/svg11.dtd">
<svg version="1.1" id="Layer_1" xmlns="http://www.w3.org/2000/svg" xmlns:xlink="http://www.w3.org/1999/xlink" x="0px" y="0px"
   width="640px" height="195px" viewBox="0 0 640 195" enable-background="new 0 0 640 195" xml:space="preserve">
<g>
  <g>
    <path fill="#3399CC" d="M68.443,155.229v26.737h-3.318v-26.737h-8.753v-3.018h20.823v3.018H68.443z"/>
    <path fill="#3399CC" d="M96.288,181.966v-13.05c0-4.806-1.694-6.973-5.266-6.973c-3.106,0-5.527,2.084-5.527,6.973v13.05h-3.191
      v-29.203l3.191-1.785v11.396c1.272-1.873,3.36-3.189,6.161-3.189c4.717,0,7.823,2.76,7.823,9.18v13.603H96.288z"/>
    <path fill="#3399CC" d="M123.294,171.889h-14.88c0.295,4.762,2.548,7.778,6.205,7.778c2.596,0,4.122-0.765,6.163-2.123
      l1.489,2.295c-2.676,1.699-4.631,2.593-7.99,2.593c-4.08,0-9.058-2.973-9.058-11.731c0-7.097,3.911-11.517,9.226-11.517
      c5.824,0,8.971,4.59,8.971,10.964C123.42,170.912,123.378,171.382,123.294,171.889z M114.407,161.943
      c-3.318,0-5.612,2.383-5.993,7.354h12.027C120.187,164.961,118.318,161.943,114.407,161.943z"/>
    <path fill="#3399CC" d="M140.813,181.966v-29.755h17.984v3.018h-14.666v9.353h8.505v3.019h-8.505v11.347h15.303v3.02H140.813z"/>
    <path fill="#3399CC" d="M179.381,181.966v-13.05c0-4.806-1.7-6.973-5.272-6.973c-3.106,0-5.527,2.084-5.527,6.973v13.05h-3.186
      V159.65h3.186v2.723c1.276-1.873,3.359-3.189,6.162-3.189c4.721,0,7.82,2.76,7.82,9.18v13.603H179.381z"/>
    <path fill="#3399CC" d="M193.415,162.324v14.542c0,1.996,0.549,2.676,2.251,2.676c1.275,0,2.13-0.212,3.147-0.64l-0.212,2.765
      c-1.234,0.513-2.422,0.765-4.124,0.765c-2.765,0-4.249-1.363-4.249-5.058v-15.05h-2.768v-2.674h2.768v-6.888l3.185-1.785v8.673
      h5.527v2.674H193.415z"/>
    <path fill="#3399CC" d="M221.218,171.889h-14.875c0.298,4.762,2.549,7.778,6.205,7.778c2.592,0,4.123-0.765,6.164-2.123
      l1.488,2.295c-2.68,1.699-4.638,2.593-7.991,2.593c-4.08,0-9.054-2.973-9.054-11.731c0-7.097,3.909-11.517,9.225-11.517
      c5.823,0,8.966,4.59,8.966,10.964C221.345,170.912,221.308,171.382,221.218,171.889z M212.335,161.943
      c-3.316,0-5.609,2.383-5.992,7.354h12.03C218.119,164.961,216.247,161.943,212.335,161.943z"/>
    <path fill="#3399CC" d="M238.693,162.962c-0.888-0.506-1.863-0.848-3.354-0.848c-3.105,0-4.848,2.509-4.848,6.759v13.093h-3.184
      V159.65h3.184v2.762c1.023-1.787,3.147-3.229,5.527-3.229c1.659,0,2.718,0.207,3.486,0.552L238.693,162.962z"/>
    <path fill="#3399CC" d="M254.089,182.432c-2.802,0-4.715-1.187-6.289-2.973v8.929l-3.192,1.782v-30.52h3.192v2.723
      c1.574-1.707,3.699-3.189,6.713-3.189c4.467,0,7.997,3.396,7.997,11.263C262.51,178.352,258.77,182.432,254.089,182.432z
       M253.707,161.943c-2.378,0-4.333,1.277-5.907,3.232v11.137c1.233,1.871,3.4,3.354,6.036,3.354c3.698,0,5.527-3.187,5.527-9.181
      C259.362,164.877,257.237,161.943,253.707,161.943z"/>
    <path fill="#3399CC" d="M279.776,162.962c-0.898-0.506-1.873-0.848-3.36-0.848c-3.105,0-4.851,2.509-4.851,6.759v13.093h-3.183
      V159.65h3.183v2.762c1.025-1.787,3.149-3.229,5.529-3.229c1.657,0,2.724,0.207,3.485,0.552L279.776,162.962z"/>
    <path fill="#3399CC" d="M287.559,155.654c-1.319,0-2.341-1.021-2.341-2.257c0-1.272,1.022-2.294,2.341-2.294
      c1.189,0,2.211,1.021,2.211,2.294C289.77,154.633,288.748,155.654,287.559,155.654z M285.901,181.966V159.65h3.189v22.315H285.901
      z"/>
    <path fill="#3399CC" d="M302.523,182.432c-3.062,0-5.739-1.147-7.863-2.845l1.871-2.34c1.786,1.574,3.869,2.465,6.078,2.465
      c3.058,0,4.504-1.275,4.504-3.445c0-1.825-1.313-2.844-5.266-4.547c-4.467-1.911-6.339-3.272-6.339-6.843
      c0-3.4,2.936-5.693,6.973-5.693c3.062,0,5.442,0.975,7.143,2.379l-1.784,2.338c-1.744-1.359-3.191-2-5.57-2
      c-2.335,0-3.699,1.148-3.699,2.762c0,1.873,1.151,2.639,4.934,4.339c4.209,1.911,6.671,3.141,6.671,7.143
      C310.176,180.521,306.393,182.432,302.523,182.432z"/>
    <path fill="#3399CC" d="M332.715,171.889h-14.88c0.295,4.762,2.547,7.778,6.205,7.778c2.595,0,4.12-0.765,6.159-2.123l1.491,2.295
      c-2.677,1.699-4.63,2.593-7.99,2.593c-4.079,0-9.05-2.973-9.05-11.731c0-7.097,3.904-11.517,9.219-11.517
      c5.824,0,8.971,4.59,8.971,10.964C332.84,170.912,332.799,171.382,332.715,171.889z M323.826,161.943
      c-3.317,0-5.611,2.383-5.991,7.354h12.028C329.608,164.961,327.74,161.943,323.826,161.943z"/>
    <path fill="#3399CC" d="M358.652,182.432c-4.036,0-7.652-1.743-9.987-4.119l2.209-2.47c2.251,2.172,4.844,3.57,7.905,3.57
      c3.954,0,6.418-1.954,6.418-5.099c0-2.763-1.659-4.333-7.094-6.291c-6.424-2.295-8.591-4.377-8.591-8.674
      c0-4.76,3.741-7.609,9.312-7.609c3.994,0,6.544,1.193,9.048,3.191l-2.123,2.595c-2.167-1.785-4.165-2.764-7.139-2.764
      c-4.079,0-5.779,2.04-5.779,4.374c0,2.47,1.102,3.871,7.053,5.993c6.591,2.384,8.631,4.592,8.631,9.014
      C368.515,178.821,364.857,182.432,358.652,182.432z"/>
    <path fill="#3399CC" d="M383.104,182.432c-5.441,0-9.605-4.036-9.605-11.604c0-7.562,4.334-11.644,9.773-11.644
      c5.438,0,9.609,3.907,9.609,11.475C392.881,178.225,388.541,182.432,383.104,182.432z M383.188,161.943
      c-3.87,0-6.466,2.934-6.466,8.799c0,5.867,2.596,8.925,6.466,8.925c3.868,0,6.502-3.058,6.502-8.925
      C389.69,164.877,387.057,161.943,383.188,161.943z"/>
    <path fill="#3399CC" d="M412.312,164.195c-1.616-1.442-3.106-2.252-5.357-2.252c-3.487,0-6.164,3.145-6.164,8.715
      c0,5.485,2.339,9.009,6.29,9.009c2.168,0,3.615-0.888,5.146-2.377l1.915,2.04c-1.871,1.915-4.04,3.102-7.187,3.102
      c-4.885,0-9.39-3.739-9.39-11.52c0-8.246,4.928-11.729,9.601-11.729c3.021,0,5.316,1.1,7.061,2.632L412.312,164.195z"/>
    <path fill="#3399CC" d="M421.673,155.654c-1.32,0-2.343-1.021-2.343-2.257c0-1.272,1.022-2.294,2.343-2.294
      c1.188,0,2.208,1.021,2.208,2.294C423.881,154.633,422.86,155.654,421.673,155.654z M420.014,181.966V159.65h3.191v22.315H420.014
      z"/>
    <path fill="#3399CC" d="M443.271,181.966v-2.721c-1.571,1.702-3.782,3.187-6.972,3.187c-3.49,0-7.145-1.743-7.145-7.14
      c0-5.018,4.127-7.144,8.546-7.144c2.253,0,4.25,0.554,5.57,1.274v-2.634c0-3.318-1.571-4.93-4.849-4.93
      c-2.337,0-4.249,0.639-6.076,1.701l-1.194-2.593c1.954-1.064,4.594-1.784,7.482-1.784c4.806,0,7.818,2.038,7.818,7.224v15.559
      H443.271z M443.271,171.976c-1.446-0.804-3.021-1.275-5.746-1.275c-3.268,0-5.225,1.57-5.225,4.375
      c0,3.32,1.831,4.764,4.548,4.764c2.892,0,5.062-1.487,6.423-3.358V171.976z"/>
    <path fill="#3399CC" d="M453.605,181.966v-29.203l3.188-1.785v30.988H453.605z"/>
    <path fill="#3399CC" d="M493.825,181.966l-13.008-20.359c-0.639-1.025-1.745-2.981-2.126-3.745v2.042v22.062h-3.19v-29.755h3.231
      l12.884,20.741c0.635,1.023,1.743,2.976,2.126,3.742v-2.042v-22.441h3.188v29.755H493.825z"/>
    <path fill="#3399CC" d="M521.255,171.889h-14.879c0.295,4.762,2.547,7.778,6.205,7.778c2.589,0,4.12-0.765,6.159-2.123
      l1.489,2.295c-2.68,1.699-4.628,2.593-7.988,2.593c-4.079,0-9.057-2.973-9.057-11.731c0-7.097,3.911-11.517,9.225-11.517
      c5.825,0,8.972,4.59,8.972,10.964C521.381,170.912,521.34,171.382,521.255,171.889z M512.367,161.943
      c-3.317,0-5.611,2.383-5.991,7.354h12.027C518.149,164.961,516.276,161.943,512.367,161.943z"/>
    <path fill="#3399CC" d="M531.12,162.324v14.542c0,1.996,0.552,2.676,2.254,2.676c1.275,0,2.126-0.212,3.146-0.64l-0.216,2.765
      c-1.229,0.513-2.424,0.765-4.125,0.765c-2.76,0-4.247-1.363-4.247-5.058v-15.05h-2.763v-2.674h2.763v-6.888l3.188-1.785v8.673
      h5.529v2.674H531.12z"/>
    <path fill="#3399CC" d="M561.729,181.966h-2.93l-4.037-14.965c-0.212-0.767-0.552-2.339-0.684-3.146
      c-0.128,0.807-0.466,2.379-0.68,3.146l-4.038,14.965h-2.85l-5.901-22.315h3.268l3.488,14.751c0.168,0.763,0.465,2.333,0.635,3.143
      c0.168-0.81,0.508-2.38,0.726-3.143l3.994-14.751h2.89l3.994,14.751c0.214,0.763,0.551,2.333,0.727,3.143
      c0.169-0.81,0.468-2.38,0.636-3.143l3.486-14.751h3.186L561.729,181.966z"/>
    <path fill="#3399CC" d="M580.871,182.432c-5.443,0-9.607-4.036-9.607-11.604c0-7.562,4.335-11.644,9.774-11.644
      c5.445,0,9.61,3.907,9.61,11.475C590.648,178.225,586.312,182.432,580.871,182.432z M580.957,161.943
      c-3.869,0-6.458,2.934-6.458,8.799c0,5.867,2.589,8.925,6.458,8.925c3.867,0,6.5-3.058,6.5-8.925
      C587.457,164.877,584.824,161.943,580.957,161.943z"/>
    <path fill="#3399CC" d="M607.913,162.962c-0.896-0.506-1.871-0.848-3.362-0.848c-3.099,0-4.84,2.509-4.84,6.759v13.093h-3.192
      V159.65h3.192v2.762c1.021-1.787,3.14-3.229,5.525-3.229c1.661,0,2.72,0.207,3.486,0.552L607.913,162.962z"/>
    <path fill="#3399CC" d="M626.535,181.966l-5.654-11.734l-3.864,5.316v6.418h-3.188v-29.203l3.188-1.785v19.254v1.15l0.891-1.36
      l7.313-10.371h3.569l-5.865,7.905l7.055,14.41H626.535z"/>
  </g>
  <g>
    <path fill="#3399CC" d="M262.165,35.78c-12.852,0-20.627,6.157-26.781,16.103c-2.714-5.788-8.501-16.103-26.771-16.103
      c-13.941,0-20.472,7.779-24.267,16.103h-0.358c0-2.646-0.098-5.283-0.2-7.895c-0.642-2.987-3.257-5.248-6.435-5.309
      c-3.675-0.063-6.706,2.815-6.853,6.465c0.201,3.899,0.462,8.185,0.462,12.897v56.568v0.049v0.401
      c0.131,3.851,3.305,6.911,7.178,6.871c3.567-0.052,6.478-2.722,6.937-6.161V81.373c0-19.36,4.002-32.572,22.271-32.572
      c11.569,0,16.279,7.241,16.279,25.882v39.927h0.025v0.017v0.05v0.405c0.115,3.849,3.285,6.903,7.155,6.856
      c3.577-0.038,6.495-2.717,6.95-6.156V81.391l-0.013-0.027v-7.587c0-15.202,9.954-24.976,21.898-24.976
      c16.46,0,16.647,11.405,16.647,23.162v42.647h0.024c0,0.096-0.013,0.204-0.007,0.305c0.042,3.904,3.25,7.04,7.168,6.99
      c3.595-0.042,6.526-2.761,6.938-6.242V71.239C290.411,49.349,286.41,35.78,262.165,35.78 M393.637,35.78
      c-12.847,0-20.624,6.157-26.763,16.103c-2.723-5.788-8.505-16.103-26.776-16.103c-13.945,0-20.466,7.779-24.272,16.103h-0.358
      c0-2.646-0.097-5.283-0.201-7.895c-0.642-2.987-3.25-5.248-6.439-5.309c-3.675-0.063-6.691,2.815-6.843,6.465
      c0.207,3.899,0.455,8.185,0.455,12.897v56.568v0.049v0.401c0.131,3.851,3.31,6.911,7.173,6.871
      c3.572-0.052,6.497-2.722,6.937-6.161V81.373c0-19.36,4.002-32.572,22.279-32.572c11.58,0,16.283,7.241,16.283,25.882v39.927h0.02
      v0.017v0.05v0.405c0.12,3.849,3.291,6.903,7.173,6.856c3.558-0.038,6.472-2.717,6.934-6.156V81.391l-0.022-0.027v-7.587
      c0-15.202,9.96-24.976,21.904-24.976c16.467,0,16.653,11.405,16.653,23.162v42.647h0.022c0,0.096-0.011,0.204-0.005,0.305
      c0.049,3.904,3.252,7.04,7.155,6.99c3.608-0.042,6.533-2.761,6.945-6.242V71.239C421.891,49.349,417.888,35.78,393.637,35.78
       M569.369,35.764c-0.092,0-0.194,0.013-0.3,0.016v-0.021c-0.343,0.031-0.561,0.063-0.561,0.063
      c-13.614,0.229-23.883,7.857-27.609,16.061h-0.356c0-2.598-0.104-5.197-0.203-7.764l-0.034,0.012
      c-0.024-0.094-0.024-0.188-0.048-0.282c-0.764-3.674-4.361-6.02-8.016-5.257c-2.732,0.566-4.735,2.712-5.261,5.286
      c0.218,4.237,0.533,8.943,0.533,14.164v58.249c0.397,3.56,3.425,6.313,7.083,6.29c3.877-0.033,7.009-3.172,7.021-7.038v-0.177
      c0-0.08-0.006-0.151-0.006-0.23h0.006V81.373c0-19.36,7.597-31.479,24.794-31.479c0.812,0,1.659,0.054,2.478,0.135v-0.006
      c0.103,0.004,0.211,0.015,0.303,0.015c3.939,0.054,7.181-3.1,7.221-7.04C576.477,39.061,573.328,35.822,569.369,35.764
       M447.533,72.537c2.19-14.835,12.175-24.719,28.508-24.719c16.351,0,26.332,9.884,27.24,24.719H447.533z M476.633,35.453
      c-24.972,0-43.422,18.269-43.422,44.51c0,24.597,16.278,44.502,42.877,44.502c12.707,0,22.926-3.12,31.631-11.083
      c2.349-2.478,2.415-6.401,0.08-8.963c-2.169-2.393-5.706-2.809-8.35-1.158c-5.538,5.278-13.277,8.332-22.688,8.332
      c-17.907,0-28.75-10.888-29.367-27.346l62.396,0.055c1.732,0,2.615-0.203,3.512-0.617c2.033-0.936,2.663-2.426,3.179-4.269
      c0.192-0.7,0.112-4.865,0.112-4.865C514.675,49.728,498.983,35.453,476.633,35.453 M623.403,36.96
      c-0.244,0-0.489-0.006-0.757-0.006c-4.34,0.006-35.575,3.43-34.01,6.612c1.562,3.159,20.807,4.682,34.513,4.693
      c2.863-0.501,4.95-3.102,4.746-6.068C627.72,39.582,625.825,37.502,623.403,36.96 M612.805,15.775
      c2.274-1.812,2.852-5.094,1.254-7.598c-1.43-2.2-4.086-3.112-6.46-2.417c-0.214,0.109-0.441,0.223-0.672,0.35
      c-3.803,2.098-29.525,20.131-26.632,22.163C583.179,30.29,600.787,22.371,612.805,15.775 M612.805,70.003
      c-12.018-6.585-29.626-14.507-32.51-12.485c-2.894,2.031,22.829,20.059,26.632,22.159c0.23,0.13,0.458,0.238,0.672,0.348
      c2.374,0.7,5.03-0.218,6.46-2.416C615.656,75.098,615.079,71.826,612.805,70.003 M85.556,28.672
      c0.029-0.093,0.073-0.187,0.104-0.284c1.197-3.745-0.884-7.75-4.614-8.941c-3.655-1.166-7.531,0.772-8.845,4.325
      c-0.024,0.101-0.083,0.26-0.157,0.49c-0.017,0.033-0.017,0.066-0.036,0.093c-2.354,6.711-22.835,60.184-22.835,60.184h-0.361
      L24.649,23.395l-0.012-0.009l-0.325-0.869c-1.66-3.505-5.759-5.218-9.458-3.833c-3.795,1.427-5.75,5.579-4.495,9.399
      c2.966,7.502,30.853,75.276,30.853,75.276l-1.834,4.029c-3.069,8.329-6.508,13.941-15.733,13.941c-0.889,0-3.988-0.185-4.19-0.203
      c-2.972-0.152-5.75,1.781-6.555,4.771c-0.913,3.397,1.077,6.895,4.457,7.86c2.444,0.434,4.951,0.594,7.204,0.594
      c16.991,0,22.61-9.785,28.215-24.066c0,0,30.814-77.003,32.224-80.214c0.223-0.512,0.417-0.962,0.582-1.389L85.556,28.672z
       M143.998,87.339c-0.357,13.75-8.681,25.514-24.966,25.514c-10.672,0-18.633-3.988-18.633-14.654
      c0-11.403,11.581-16.279,29.494-16.279h14.105V87.339z M158.352,114.241l0.024-0.009c-0.171-2.102-0.268-4.229-0.268-6.262V71.599
      c0-23.878-10.497-35.819-35.463-35.819c-9.994,0-20.194,2.779-28.349,8.563c-2.276,2.228-2.674,5.841-0.768,8.515
      c2.111,2.957,6.211,3.641,9.177,1.531c0.072-0.048,0.133-0.12,0.212-0.172l0.036,0.042c5.968-3.626,13.119-5.458,20.055-5.458
      c13.21,0,20.989,6.341,20.989,18.644v2.532h-5.424c-20.814,0-53.376,1.623-53.376,29.67c0,16.464,14.3,25.148,31.479,25.148
      c12.852,0,22.26-6.156,27.866-14.834h0.375c0,1.914,0.005,4.297,0.158,6.68c0.63,3.549,3.958,6.002,7.562,5.502
      c3.699-0.52,6.271-3.93,5.756-7.619C158.393,114.426,158.355,114.336,158.352,114.241"/>
  </g>
</g>
</svg>
